 <svg version="1.0" xmlns="http://www.w3.org/2000/svg" width="700.000000pt" height="208.000000pt" viewBox="0 0 700.000000 208.000000" preserveAspectRatio="xMidYMid meet">
<metadata>
Created by potrace 1.12, written by Peter Selinger 2001-2015
</metadata>
<g transform="translate(0.000000,208.000000) scale(0.100000,-0.100000)" fill="#000000" stroke="none">
<path d="M0 1040 l0 -1040 3500 0 3500 0 0 1040 0 1040 -3500 0 -3500 0 0
-1040z m1002 473 c12 -11 18 -30 18 -58 0 -37 5 -45 50 -84 28 -24 50 -49 50
-57 0 -18 -1 -18 51 6 56 25 89 25 144 -1 44 -21 45 -21 63 -2 9 11 37 35 62
55 36 28 45 42 46 68 2 63 75 92 121 48 27 -25 30 -64 7 -96 -13 -20 -24 -23
-69 -21 -53 2 -78 -10 -174 -87 -2 -2 1 -9 6 -16 6 -7 16 -30 23 -52 30 -94
-50 -196 -155 -196 -28 0 -32 -3 -32 -27 0 -16 -5 -48 -11 -73 -6 -25 -14 -57
-18 -72 -5 -21 0 -35 20 -59 35 -41 41 -71 22 -108 -19 -36 -44 -51 -86 -51
-44 0 -69 16 -86 56 -12 29 -12 39 -1 67 16 38 32 52 69 61 24 5 28 14 47 93
29 118 29 115 5 128 -39 20 -56 39 -75 83 -24 56 -24 72 2 128 21 44 21 46 3
58 -11 8 -37 30 -58 50 -33 30 -47 36 -85 36 -27 0 -51 6 -63 17 -24 22 -24
77 2 103 24 24 77 26 102 3z m3478 -189 l0 -126 23 7 c46 16 151 17 188 1 59
-25 113 -85 133 -150 46 -146 -16 -285 -151 -336 -64 -24 -101 -25 -150 -5
-25 11 -40 12 -47 5 -5 -5 -43 -10 -83 -10 l-73 0 0 370 0 370 80 0 80 0 0
-126z m-1412 86 c47 -44 9 -130 -58 -130 -41 0 -80 39 -80 79 0 41 34 71 80
71 23 0 44 -8 58 -20z m1150 0 c32 -30 30 -82 -4 -109 -55 -43 -134 -11 -134
55 0 21 8 42 20 54 27 27 89 27 118 0z m1450 -122 l3 -67 57 -3 57 -3 3 -44
c6 -81 -1 -91 -63 -91 l-55 0 0 -108 c0 -97 2 -111 21 -127 17 -16 24 -17 51
-7 17 6 35 9 39 6 5 -3 9 -30 9 -60 0 -54 -1 -55 -37 -71 -47 -19 -121 -12
-168 17 -55 34 -69 77 -73 223 -4 114 -6 127 -22 127 -30 0 -41 25 -38 82 3
50 5 53 31 56 26 3 27 5 27 66 0 34 3 66 7 70 4 4 39 5 78 4 l70 -3 3 -67z
m-3488 -83 c0 -19 17 -19 54 0 16 9 55 15 90 15 52 0 70 -5 109 -30 25 -16 49
-25 52 -21 2 5 25 18 50 30 65 30 179 30 225 -1 54 -37 71 -69 81 -149 11 -95
11 -310 0 -327 -5 -9 -29 -12 -82 -10 l-74 3 -5 176 c-6 204 -9 212 -78 207
-36 -2 -49 -9 -66 -31 -19 -26 -21 -45 -25 -193 l-3 -165 -77 3 -76 3 -3 174
c-3 205 -7 214 -80 209 -36 -2 -49 -9 -66 -31 -19 -26 -21 -44 -24 -193 l-4
-164 -73 0 c-57 0 -74 3 -79 16 -8 21 -8 479 1 487 3 4 39 7 80 7 58 0 73 -3
73 -15z m908 -220 c2 -126 0 -240 -3 -252 -5 -21 -11 -23 -74 -23 -54 0 -70 4
-75 16 -8 22 -8 479 1 488 4 4 39 5 78 4 l70 -3 3 -230z m249 216 c5 -19 5
-19 36 0 50 30 148 26 205 -7 l44 -26 53 26 c43 21 69 26 124 26 160 0 201
-68 201 -328 0 -190 4 -182 -86 -182 l-74 0 0 154 c0 148 -10 212 -34 228 -6
4 -29 8 -52 8 -29 0 -46 -6 -62 -23 -20 -21 -22 -35 -24 -192 l-3 -170 -77 -3
-78 -3 0 161 c0 118 -4 170 -14 195 -14 33 -17 35 -65 35 -42 0 -53 -4 -70
-26 -19 -24 -21 -40 -21 -180 0 -84 -3 -159 -6 -168 -5 -13 -22 -16 -80 -16
l-74 0 0 255 0 255 76 0 c66 0 76 -2 81 -19z m898 -236 l0 -250 -77 -3 -78 -3
0 256 0 256 78 -3 77 -3 0 -250z m1032 234 c83 -35 132 -96 152 -187 33 -155
-100 -312 -265 -312 -83 0 -200 66 -236 134 -68 127 -20 288 107 358 65 36
168 39 242 7z m-4454 -70 c12 -6 32 -20 44 -31 17 -16 25 -18 41 -9 12 6 31
11 45 11 13 0 27 3 31 7 9 10 95 31 100 25 10 -9 -7 -32 -25 -32 -10 0 -28 -4
-41 -9 -13 -5 -45 -15 -71 -23 -42 -11 -50 -18 -67 -56 -14 -32 -29 -47 -57
-58 -33 -14 -40 -14 -70 0 -19 9 -40 30 -50 50 -14 30 -14 39 -3 66 13 32 62
70 88 70 7 0 23 -5 35 -11z m643 -37 c5 -5 28 -14 50 -22 37 -11 45 -10 65 4
31 22 61 20 93 -5 34 -27 34 -68 0 -103 -15 -14 -35 -26 -46 -26 -31 0 -66 29
-73 61 -4 17 -14 33 -23 36 -66 21 -132 49 -132 55 0 11 54 10 66 0z"></path>
<path d="M4507 1076 c-71 -66 -52 -211 33 -246 65 -27 140 42 140 128 0 53
-21 104 -51 126 -35 24 -91 21 -122 -8z"></path>
<path d="M5124 1085 c-65 -27 -96 -100 -71 -170 15 -43 65 -85 102 -85 68 0
129 96 106 169 -15 49 -32 68 -72 85 -28 12 -39 12 -65 1z"></path>
</g>
</svg>